<?xml version="1.0" standalone="no"?>
<!DOCTYPE svg PUBLIC "-//W3C//DTD SVG 20010904//EN"
 "http://www.w3.org/TR/2001/REC-SVG-20010904/DTD/svg10.dtd">
<svg version="1.0" xmlns="http://www.w3.org/2000/svg"
 width="600.000000pt" height="600.000000pt" viewBox="0 0 600.000000 600.000000"
 preserveAspectRatio="xMidYMid meet">
<metadata>
Created by potrace 1.14, written by Peter Selinger 2001-2017
</metadata>
<g transform="translate(0.000000,600.000000) scale(0.100000,-0.100000)"
fill="#000000" stroke="none">
<path d="M2620 5884 c-540 -64 -1086 -306 -1564 -693 -301 -242 -536 -528
-725 -881 -73 -137 -98 -186 -108 -215 -6 -16 -34 -89 -62 -162 -27 -73 -59
-178 -70 -235 -11 -57 -27 -130 -36 -162 -26 -98 -38 -220 -42 -436 -7 -320
25 -567 114 -890 54 -194 188 -507 276 -647 15 -24 27 -46 27 -49 0 -10 127
-200 194 -289 85 -114 390 -414 531 -523 209 -162 421 -288 655 -389 205 -89
326 -126 605 -182 l150 -31 451 0 c407 0 461 2 562 20 385 69 733 204 1043
405 418 271 709 556 937 918 119 188 265 512 326 722 89 309 116 499 116 818
0 343 -36 568 -140 884 -92 280 -281 655 -366 726 -18 15 -48 58 -66 95 -18
36 -58 94 -88 127 -31 33 -73 80 -94 105 -58 67 -218 211 -326 294 -261 200
-460 322 -722 440 -297 135 -548 202 -878 236 -137 14 -564 10 -700 -6z m482
-45 c5 -15 160 -29 169 -16 4 5 15 5 27 -2 11 -6 29 -11 39 -11 15 1 13 4 -7
16 -17 11 -19 13 -5 9 11 -4 45 -8 76 -10 97 -5 480 -91 498 -111 3 -4 -5 -4
-18 -1 -17 4 -21 3 -13 -5 6 -6 30 -12 54 -13 53 -2 87 -19 83 -42 -1 -10 2
-24 8 -31 6 -8 -5 -3 -25 10 -24 15 -33 27 -27 34 6 8 3 13 -10 17 -14 3 -18
1 -14 -10 5 -12 2 -13 -13 -5 -72 37 -121 52 -195 59 -46 4 -75 9 -64 11 11 2
25 8 30 14 7 6 7 9 0 7 -5 -1 -22 1 -37 5 -16 5 -88 9 -160 11 -305 7 -506 16
-551 25 -26 6 -76 10 -110 11 -47 0 -57 3 -42 10 17 8 17 9 -5 4 -14 -2 -33
-5 -42 -5 -10 0 -18 -7 -18 -15 0 -8 -7 -16 -15 -16 -8 -1 -27 -3 -42 -5 -16
-2 -55 -5 -88 -8 -33 -3 -88 -10 -123 -16 -35 -6 -66 -8 -71 -6 -8 5 -132 -10
-166 -20 -34 -11 -7 9 33 23 98 35 289 69 477 86 106 10 364 6 367 -4z m71 -6
c-7 -2 -21 -2 -30 0 -10 3 -4 5 12 5 17 0 24 -2 18 -5z m-396 -39 c-3 -3 -12
-4 -19 -1 -8 3 -5 6 6 6 11 1 17 -2 13 -5z m96 -1 c-13 -2 -33 -2 -45 0 -13 2
-3 4 22 4 25 0 35 -2 23 -4z m-678 -62 c-3 -5 0 -11 7 -14 7 -2 0 -2 -17 0
-23 3 -26 2 -15 -6 12 -8 8 -12 -20 -18 -19 -4 -38 -6 -42 -5 -5 1 -8 -5 -8
-14 0 -12 -7 -15 -30 -12 -25 4 -28 2 -17 -11 10 -12 9 -13 -2 -6 -9 5 -18 2
-27 -10 -10 -13 -21 -16 -46 -11 -20 4 -28 3 -19 -3 16 -11 -3 -26 -20 -15 -7
4 -10 1 -7 -7 3 -10 -11 -18 -46 -27 -28 -7 -53 -16 -56 -20 -3 -4 -38 -23
-79 -42 -41 -19 -98 -49 -127 -66 -39 -24 -55 -29 -64 -20 -10 8 -11 7 -8 -4
6 -19 -36 -52 -56 -44 -9 3 -13 11 -9 17 3 6 1 7 -6 3 -8 -6 -9 -12 -2 -20 8
-9 -18 -31 -102 -86 -61 -41 -132 -91 -157 -112 -57 -48 -221 -189 -239 -206
-7 -7 -19 -11 -26 -9 -7 3 -11 -3 -10 -16 1 -15 -11 -29 -39 -48 -77 -49 -177
-167 -230 -272 -49 -95 -72 -124 -42 -53 17 40 15 44 -8 20 -12 -12 -16 -12
-16 -2 -1 8 -6 6 -15 -6 -9 -12 -15 -15 -15 -7 0 11 -3 11 -17 0 -16 -13 -17
-12 -4 3 7 10 18 15 24 11 6 -4 8 0 4 10 -9 23 10 31 22 10 8 -15 10 -15 11
-2 0 8 -4 19 -9 25 -11 10 54 104 72 104 8 0 7 -4 -2 -9 -15 -10 -7 -31 12
-30 8 0 8 2 -1 6 -10 4 -10 8 -1 19 6 7 9 19 6 26 -2 7 17 38 44 68 38 43 51
52 60 43 10 -10 9 -17 -6 -33 -10 -11 -13 -20 -7 -20 17 0 31 33 28 63 -3 21
3 31 23 42 14 8 22 14 17 15 -5 0 1 11 14 25 12 13 27 22 33 18 6 -3 7 -2 4 4
-10 16 57 75 76 67 13 -4 16 -2 12 9 -8 18 50 68 70 60 10 -3 13 -1 10 9 -7
18 41 52 70 50 13 -1 15 2 7 7 -9 5 -3 16 20 37 17 16 28 22 24 14 -4 -8 0 -6
8 4 9 11 16 16 16 11 0 -5 7 1 16 13 15 22 41 32 28 10 -4 -7 -3 -8 5 -4 6 4
9 12 5 17 -3 6 3 13 15 16 12 3 21 10 21 15 0 5 4 7 9 4 5 -3 11 0 14 8 8 20
65 46 85 39 15 -6 16 -5 2 12 -8 10 -10 16 -3 12 6 -4 15 -2 20 5 11 18 53 40
53 28 0 -5 10 -14 21 -21 17 -9 20 -8 14 2 -6 8 -4 10 5 4 8 -5 11 -4 6 3 -4
6 -13 9 -21 6 -9 -4 -13 1 -11 12 3 21 243 147 264 139 7 -3 11 -1 8 4 -7 10
112 65 137 63 9 0 15 3 12 9 -4 5 -2 9 4 9 5 0 18 3 28 6 13 4 14 3 5 -4 -11
-7 -8 -11 9 -15 13 -4 25 -4 28 -2 2 3 -1 5 -7 5 -24 0 -11 28 18 39 17 6 43
16 60 22 16 6 37 9 45 5 9 -3 13 -2 10 4 -3 5 7 12 22 16 15 3 33 7 38 9 6 2
11 4 13 4 2 1 1 -3 -3 -8z m132 3 c-3 -3 -12 -4 -19 -1 -8 3 -5 6 6 6 11 1 17
-2 13 -5z m46 -1 c-7 -2 -19 -2 -25 0 -7 3 -2 5 12 5 14 0 19 -2 13 -5z m1240
0 c-13 -2 -33 -2 -45 0 -13 2 -3 4 22 4 25 0 35 -2 23 -4z m138 -73 c80 -15
160 -50 157 -69 -2 -11 4 -16 19 -15 12 0 20 -3 17 -7 -2 -4 6 -18 18 -30 18
-17 19 -21 5 -16 -22 8 -18 1 36 -68 130 -165 142 -406 28 -581 -72 -112 -172
-175 -314 -200 -147 -26 -286 8 -401 99 -22 18 -44 32 -49 32 -5 0 -15 11 -22
25 -8 14 -14 19 -14 10 0 -8 8 -26 19 -40 12 -15 20 -19 20 -11 0 8 2 12 5 9
3 -3 3 -13 -1 -22 -5 -13 -12 -9 -36 23 -16 23 -26 46 -22 52 4 8 3 9 -5 5
-12 -8 -41 50 -67 134 -74 234 43 509 266 625 91 48 230 66 341 45z m309 -5
c14 -8 21 -14 15 -14 -5 0 -21 6 -35 14 -14 8 -20 14 -15 14 6 0 21 -6 35 -14z
m-1759 -5 c30 -17 24 -40 -11 -40 -16 0 -59 -11 -95 -25 -113 -42 -194 -111
-260 -220 -41 -69 -56 -115 -64 -205 -5 -56 -9 -65 -26 -65 -43 0 -24 158 32
270 69 139 207 250 352 284 50 12 50 12 72 1z m1809 -40 c0 -5 -5 -10 -11 -10
-5 0 -7 5 -4 10 3 6 8 10 11 10 2 0 4 -4 4 -10z m42 -30 c2 -6 28 -13 58 -17
30 -3 49 -8 42 -11 -6 -2 -10 -8 -7 -12 3 -5 12 -7 19 -4 8 3 17 1 21 -5 3 -6
11 -11 16 -11 6 0 7 4 4 10 -8 13 18 3 70 -27 41 -23 40 -24 -20 -27 -11 -1
-34 9 -51 22 -17 12 -37 22 -45 22 -8 0 -25 7 -37 16 -13 9 -51 24 -85 34 -57
17 -59 19 -25 19 20 1 38 -4 40 -9z m258 -114 c0 -3 -4 -8 -10 -11 -5 -3 -10
-1 -10 4 0 6 5 11 10 11 6 0 10 -2 10 -4z m97 -51 c0 -8 -4 -12 -9 -9 -5 3 -6
10 -3 15 9 13 12 11 12 -6z m23 -25 c-8 -5 -22 -9 -30 -9 -10 0 -8 3 5 9 27
12 43 12 25 0z m50 -10 c0 -5 -4 -10 -9 -10 -6 0 -13 5 -16 10 -3 6 1 10 9 10
9 0 16 -4 16 -10z m41 -27 c13 -17 13 -17 -6 -3 -11 8 -22 16 -24 17 -2 2 0 3
6 3 6 0 17 -8 24 -17z m64 -41 c-3 -3 -11 0 -18 7 -9 10 -8 11 6 5 10 -3 15
-9 12 -12z m86 -59 c13 -16 12 -17 -3 -4 -10 7 -18 15 -18 17 0 8 8 3 21 -13z
m45 -35 c19 -23 19 -23 -1 -7 -11 9 -27 14 -35 12 -13 -4 -13 -3 0 6 8 6 15
11 16 11 0 0 9 -10 20 -22z m-3598 -320 c2 -11 -5 -19 -20 -22 -158 -30 -216
-57 -301 -140 -34 -34 -73 -83 -87 -111 -43 -85 -72 -107 -85 -65 -8 26 54
142 105 198 47 50 130 106 206 138 72 30 177 31 182 2z m3575 3 c6 -26 0 -31
-39 -31 -56 0 -158 -38 -223 -84 -73 -50 -120 -105 -162 -189 -21 -41 -35 -57
-47 -55 -71 13 44 207 175 294 110 74 284 111 296 65z m-1433 -201 c8 -5 11
-10 5 -10 -5 0 -21 10 -35 21 -24 20 -5 13 30 -11z m-2856 -224 c-10 -8 -16
-18 -11 -22 4 -4 7 -2 7 4 0 6 7 9 15 6 14 -6 14 -8 -1 -19 -11 -8 -15 -21
-12 -39 4 -21 3 -24 -9 -15 -8 7 -11 21 -8 33 5 19 5 19 -5 3 -7 -10 -9 -26
-5 -35 5 -14 4 -15 -7 -4 -10 10 -18 7 -42 -20 -28 -33 -28 -33 -10 -3 60 100
79 125 92 125 12 0 12 -3 -4 -14z m2463 -12 c-3 -3 -12 -4 -19 -1 -8 3 -5 6 6
6 11 1 17 -2 13 -5z m-223 -45 c5 -4 -2 -6 -17 -6 -19 2 -23 5 -15 15 6 7 14
9 17 5 3 -4 10 -11 15 -14z m-67 5 c-3 -3 -12 -4 -19 -1 -8 3 -5 6 6 6 11 1
17 -2 13 -5z m273 -4 c0 -12 -39 -12 -95 -1 -37 8 -35 9 28 10 39 1 67 -3 67
-9z m238 -16 c24 -8 52 -12 63 -9 44 14 108 13 113 -2 4 -8 3 -20 -1 -25 -4
-7 -1 -8 6 -4 7 5 10 14 7 22 -4 10 2 14 20 14 31 0 67 -18 59 -29 -3 -5 2
-12 11 -15 8 -3 13 -2 10 3 -10 16 53 6 74 -12 11 -9 20 -12 20 -7 0 15 17 12
36 -7 10 -10 20 -17 23 -16 3 0 5 -3 3 -9 -1 -5 2 -7 7 -4 12 8 42 -4 36 -14
-2 -4 8 -13 23 -20 28 -14 35 -16 63 -18 9 -1 33 -19 55 -39 21 -21 34 -31 29
-23 -10 17 -10 17 63 -40 23 -18 42 -37 42 -42 0 -5 -5 -6 -12 -2 -7 5 -8 3
-3 -5 5 -9 11 -9 17 -3 15 15 128 -96 214 -211 136 -181 231 -395 270 -607 21
-116 21 -366 0 -490 -20 -112 -83 -305 -133 -405 -79 -158 -240 -355 -378
-464 -118 -94 -278 -185 -410 -233 -263 -97 -593 -115 -852 -47 -238 62 -403
144 -580 286 -167 134 -305 304 -387 474 -40 84 -106 268 -111 311 -2 15 -7
37 -10 49 -4 12 -3 24 3 28 6 3 7 20 4 36 l-6 30 -8 -30 c-5 -20 -6 -8 -4 35
2 40 1 57 -4 45 -16 -38 -10 237 5 280 17 48 18 55 4 35 -7 -11 -8 -6 -3 20 3
19 11 40 16 47 5 7 7 17 4 22 -4 6 1 42 10 80 12 50 21 68 30 64 8 -3 14 1 14
8 0 11 3 11 11 -1 9 -12 10 -12 5 3 -3 10 -6 24 -6 30 0 7 -4 6 -10 -3 -5 -8
-10 -10 -10 -5 0 6 4 16 9 24 7 11 11 10 20 -5 8 -15 10 -16 11 -3 0 8 -6 21
-12 28 -11 11 -9 12 7 3 18 -9 20 -7 19 23 -1 18 -5 39 -9 46 -5 8 -4 10 4 5
6 -4 14 0 17 9 5 13 9 14 15 4 5 -9 10 1 15 29 4 23 10 45 15 48 5 3 7 -1 5
-8 -12 -36 -14 -78 -6 -78 6 0 10 11 10 25 0 16 4 23 14 19 8 -3 16 3 19 15 3
12 2 19 -3 16 -4 -3 -10 6 -12 20 -4 20 -1 25 16 25 28 0 44 12 41 30 -1 8 1
24 6 35 7 19 8 19 8 -2 1 -13 5 -23 10 -23 9 0 1 44 -14 72 -4 7 1 4 9 -6 9
-11 16 -26 16 -33 0 -7 5 -13 11 -13 6 0 9 9 6 20 -3 11 -1 20 5 20 5 0 7 4 3
9 -3 5 0 13 6 17 8 4 9 3 5 -4 -4 -7 -3 -12 2 -12 17 0 21 13 10 33 -9 17 -8
19 7 13 10 -3 24 -1 31 5 8 6 20 9 27 6 8 -3 13 3 13 14 0 12 -7 19 -18 19
-10 0 -18 5 -18 11 0 6 9 9 19 6 14 -3 18 -1 14 9 -3 8 2 17 12 20 9 4 14 13
11 21 -3 8 -1 11 5 8 5 -4 7 -16 3 -28 -6 -19 -5 -20 10 -5 9 9 16 23 16 31 0
9 7 14 18 11 18 -4 69 52 58 64 -4 3 -11 0 -16 -8 -7 -11 -9 -9 -7 8 1 23 12
29 22 12 9 -14 25 -12 25 3 0 6 15 28 32 46 19 20 25 32 16 28 -10 -3 -20 -2
-23 3 -4 6 -11 10 -18 10 -6 0 -2 -7 9 -15 16 -13 17 -16 4 -25 -23 -15 -34
-12 -20 5 16 20 -7 20 -32 1 -13 -10 -15 -15 -6 -24 9 -9 9 -12 0 -12 -7 0
-12 5 -12 10 0 7 -7 7 -20 0 -11 -6 -18 -15 -15 -21 4 -5 4 -9 1 -9 -3 0 -7 4
-10 9 -5 8 18 27 119 101 19 13 19 13 6 -3 -13 -17 -11 -18 31 -15 41 3 44 5
44 30 0 16 -4 28 -9 28 -5 0 -7 -6 -4 -14 7 -17 -11 -36 -33 -36 -12 1 -12 3
3 11 9 6 15 14 12 18 -6 10 13 28 34 33 8 2 22 10 32 19 11 11 26 15 45 11 27
-5 27 -5 6 -13 -12 -5 -30 -6 -40 -2 -10 3 -5 -5 12 -21 35 -31 40 -32 27 -7
-9 16 -6 20 16 26 19 4 23 9 14 14 -10 7 -10 10 -1 16 7 4 16 2 21 -6 4 -7 11
-10 16 -6 4 5 3 11 -2 15 -13 9 -18 35 -5 27 5 -3 10 -1 10 4 0 6 5 11 11 11
8 0 7 -5 -1 -15 -10 -12 -10 -19 -1 -28 9 -9 13 -7 17 10 6 23 36 39 54 28 5
-3 10 -4 10 0 0 3 -10 10 -22 15 l-23 9 22 0 c12 1 25 6 28 11 3 6 11 10 18
10 6 0 2 -7 -9 -15 -20 -15 -17 -17 29 -19 15 -1 27 2 27 6 0 4 -5 8 -12 8 -6
0 -8 3 -4 7 4 5 14 -1 22 -11 11 -15 16 -17 28 -7 8 7 23 12 33 10 26 -2 83
12 83 21 0 5 -6 11 -12 14 -7 4 1 4 19 1 18 -2 34 -1 37 4 3 4 92 7 198 5 175
-2 191 -1 173 13 -20 16 -20 16 0 9 11 -4 39 -14 63 -22z m70 15 c11 0 9 -4
-7 -10 -28 -11 -55 -4 -46 12 4 6 14 8 22 5 8 -3 22 -6 31 -7z m-665 -40 c-5
-5 -20 -5 -33 -2 l-25 7 25 6 c28 8 46 2 33 -11z m-2129 -30 c-4 16 -3 21 5
17 15 -10 14 -33 -3 -43 -8 -4 -15 -10 -15 -13 0 -6 -18 -50 -29 -70 -49 -87
-77 -145 -117 -245 -39 -95 -56 -124 -47 -80 2 15 -1 37 -8 51 -8 13 -10 27
-6 31 4 4 9 -3 13 -15 3 -12 9 -19 14 -16 5 3 5 13 -1 23 -5 10 -6 22 -2 26 4
5 1 5 -7 0 -8 -4 -12 -4 -10 1 36 87 54 124 61 124 8 0 0 -27 -16 -50 -6 -10
-4 -9 9 2 12 11 18 29 17 54 -1 20 5 49 12 63 8 14 17 35 21 46 5 16 8 17 16
5 8 -12 9 -11 8 5 -4 27 10 67 21 60 5 -3 17 5 27 19 l18 24 13 -21 c13 -22
13 -22 6 2z m1906 -34 c0 -2 -10 -10 -22 -16 -21 -11 -22 -11 -9 4 13 16 31
23 31 12z m-458 -347 c-16 -16 -15 -33 1 -19 10 8 14 7 14 -4 0 -8 -4 -12 -9
-9 -4 3 -8 -2 -8 -10 0 -8 -4 -17 -9 -20 -5 -3 -8 7 -7 22 1 28 12 52 24 52 3
0 1 -5 -6 -12z m-44 -68 c-7 -11 -19 -22 -28 -25 -8 -4 -4 5 9 19 29 31 36 33
19 6z m22 -20 c0 -5 -4 -10 -10 -10 -5 0 -10 5 -10 10 0 6 5 10 10 10 6 0 10
-4 10 -10z m-1714 -105 c-4 -20 -4 -40 -1 -46 9 -14 34 20 35 46 0 17 -2 17
-10 5 -6 -9 -10 -10 -10 -3 0 17 17 25 25 13 4 -6 4 -34 0 -62 -7 -47 -9 -50
-21 -33 -13 18 -14 17 -15 -11 -1 -23 -3 -25 -6 -6 -2 12 -8 20 -13 17 -5 -3
-7 -13 -4 -23 5 -13 4 -14 -4 -3 -6 8 -6 27 -1 50 5 20 12 48 15 64 9 40 17
33 10 -8z m1634 16 c-5 -11 -19 -19 -29 -18 -11 0 -18 5 -15 9 3 4 11 5 18 2
7 -3 16 2 19 10 4 9 9 16 12 16 3 0 1 -9 -5 -19z m-1666 -147 c3 -8 2 -12 -4
-9 -6 3 -10 10 -10 16 0 14 7 11 14 -7z m41 -33 c-7 -32 -25 -43 -25 -16 0 8
5 15 10 15 6 0 10 10 10 22 0 12 3 19 6 15 3 -3 3 -19 -1 -36z m555 -6 c19
-23 5 -32 -75 -50 -133 -29 -230 -96 -302 -207 -46 -71 -76 -87 -88 -48 -14
43 82 168 181 236 98 67 254 106 284 69z m4464 -1 c25 -24 20 -29 -41 -42
-131 -27 -262 -120 -328 -231 -32 -55 -48 -62 -65 -31 -13 23 -5 40 52 117 36
50 112 115 168 144 41 21 153 59 177 59 12 0 29 -7 37 -16z m-5074 -148 c0 -3
-4 -8 -10 -11 -5 -3 -10 -1 -10 4 0 6 5 11 10 11 6 0 10 -2 10 -4z m-33 -38
c-3 -7 -5 -2 -5 12 0 14 2 19 5 13 2 -7 2 -19 0 -25z m52 -3 c-6 -19 -9 -41
-8 -47 4 -32 -3 -46 -23 -51 -27 -8 -48 9 -47 37 0 11 3 15 6 9 9 -23 23 -14
24 15 1 16 3 20 6 10 7 -26 23 -22 23 6 0 30 9 56 20 56 5 0 4 -16 -1 -35z
m4390 -500 l2 30 14 -34 c19 -43 18 -64 -8 -196 l-22 -109 -33 -7 c-27 -6 -32
-4 -27 10 11 35 44 210 51 271 7 55 9 60 15 35 l7 -30 1 30z m87 -141 c7 -27
-7 -50 -25 -40 -12 8 -15 49 -4 59 13 13 23 7 29 -19z m-156 -206 c0 -7 -7
-22 -15 -32 -17 -22 -20 -50 -5 -41 6 3 7 -1 4 -9 -3 -9 -11 -16 -16 -16 -6 0
-8 -7 -4 -15 3 -9 0 -15 -9 -15 -7 0 -17 -5 -21 -12 -4 -7 -3 -8 4 -4 16 10
15 -6 -2 -29 -8 -11 -11 -26 -8 -35 5 -13 3 -13 -11 -2 -14 12 -16 9 -12 -31
3 -34 -1 -50 -16 -66 -10 -11 -19 -23 -19 -27 0 -13 -72 -120 -127 -192 -29
-37 -53 -71 -53 -76 0 -4 -7 -6 -15 -2 -8 3 -14 2 -12 -3 4 -14 -95 -102 -109
-97 -8 3 -13 2 -13 -2 4 -22 -3 -31 -18 -25 -16 6 -16 5 -4 -10 12 -15 11 -16
-18 -6 -18 6 -35 9 -38 5 -4 -3 1 -6 10 -6 24 0 31 -19 10 -28 -30 -12 -117
-65 -137 -84 -11 -10 -25 -18 -32 -18 -7 0 -19 -6 -26 -13 -22 -23 -58 -38
-70 -31 -6 4 -8 3 -5 -3 4 -6 -13 -18 -36 -28 -23 -9 -50 -21 -59 -26 -10 -5
-25 -9 -33 -9 -8 0 -15 -4 -15 -10 0 -5 -8 -10 -17 -10 -16 0 -16 2 -3 11 12
8 10 9 -7 4 -24 -7 -32 9 -10 19 6 3 -1 3 -18 1 -26 -4 -24 -2 13 16 24 11 52
21 63 22 10 1 19 5 19 9 0 4 5 8 11 8 7 0 43 16 81 35 38 20 74 32 80 29 7 -4
8 -2 4 5 -4 6 0 14 11 18 26 10 111 65 163 106 24 20 48 33 52 31 5 -3 7 0 6
6 -2 7 9 21 24 33 22 16 30 18 42 8 22 -18 39 -5 24 19 -9 14 -9 22 1 34 8 9
19 16 25 16 8 0 8 -2 0 -8 -7 -4 -8 -15 -3 -27 7 -19 8 -19 8 -1 1 11 9 28 18
38 16 18 16 18 -3 12 -16 -6 -15 -3 6 22 37 43 74 79 82 79 3 0 10 4 15 9 5 5
2 6 -6 1 -9 -5 -12 -3 -9 6 3 8 11 13 17 11 7 -1 10 2 7 7 -4 5 10 30 29 55
19 26 35 51 35 57 0 5 5 7 10 4 6 -3 10 0 10 7 0 25 100 218 112 219 10 0 10
2 1 5 -9 4 -7 17 5 50 15 42 32 59 32 32z m5 -48 c3 -5 1 -10 -4 -10 -6 0 -11
5 -11 10 0 6 2 10 4 10 3 0 8 -4 11 -10z m-4037 -213 c-7 -8 -20 -16 -28 -19
-8 -4 0 -5 17 -5 22 1 33 7 34 17 0 10 4 8 11 -6 8 -17 6 -26 -8 -43 -22 -25
-69 -30 -60 -5 3 8 2 12 -4 9 -6 -3 -10 1 -10 10 0 28 20 55 41 55 17 0 18 -2
7 -13z m747 -92 c0 -16 -9 -21 -49 -27 -108 -15 -251 -115 -311 -217 -34 -58
-44 -64 -69 -46 -17 13 -17 16 9 62 73 135 258 256 380 250 33 -2 40 -6 40
-22z m3599 9 c4 -9 5 -18 4 -19 -2 -1 -41 -11 -88 -24 -47 -12 -105 -34 -130
-48 -61 -36 -150 -128 -179 -185 -25 -49 -40 -58 -60 -34 -14 17 -7 38 33 96
72 106 155 172 264 210 72 25 147 27 156 4z m780 -125 c45 -53 31 -111 -31
-128 -58 -16 -102 17 -103 78 0 25 7 40 28 57 38 33 74 31 106 -7z m-1488
-176 c-7 -7 -26 7 -26 19 0 6 6 6 15 -2 9 -7 13 -15 11 -17z m-3316 -53 c0
-22 -14 -40 -31 -40 -13 0 -19 7 -19 23 0 13 3 26 6 29 7 8 44 -2 44 -12z
m1545 -170 c3 -6 -1 -7 -9 -4 -18 7 -21 14 -7 14 6 0 13 -4 16 -10z m210 -111
c22 -6 50 -10 63 -10 13 1 20 -4 17 -9 -3 -6 0 -10 7 -10 8 0 31 -9 53 -20 22
-11 50 -20 63 -20 13 0 21 -4 17 -9 -3 -6 -18 -6 -38 0 -17 6 -55 16 -82 24
-75 20 -183 64 -160 64 11 0 38 -4 60 -10z m964 -26 c20 -8 13 -12 -50 -27
-67 -16 -198 -33 -174 -22 6 3 37 10 69 16 36 8 54 15 46 20 -9 6 -8 10 6 19
21 11 65 9 103 -6z m-762 1 c-3 -3 -12 -4 -19 -1 -8 3 -5 6 6 6 11 1 17 -2 13
-5z m626 -21 c-7 -2 -19 -2 -25 0 -7 3 -2 5 12 5 14 0 19 -2 13 -5z m-380 -10
c-7 -2 -21 -2 -30 0 -10 3 -4 5 12 5 17 0 24 -2 18 -5z m-74 -17 c-2 -2 -26
-6 -53 -9 -30 -3 -43 -1 -35 4 13 8 97 13 88 5z m114 -13 c-7 -2 -19 -2 -25 0
-7 3 -2 5 12 5 14 0 19 -2 13 -5z m-75 -10 c-15 -2 -42 -2 -60 0 -18 2 -6 4
27 4 33 0 48 -2 33 -4z m229 1 c-3 -3 -12 -4 -19 -1 -8 3 -5 6 6 6 11 1 17 -2
13 -5z m-743 -16 c-3 -4 10 -4 29 -1 19 3 47 -1 67 -10 26 -11 30 -16 15 -17
-15 -1 -10 -6 18 -21 26 -14 37 -25 33 -35 -4 -9 -2 -12 5 -8 6 3 21 -4 34
-16 14 -13 29 -19 36 -15 8 5 10 4 5 -3 -4 -7 9 -28 31 -49 21 -21 44 -48 52
-60 8 -12 21 -19 30 -16 12 4 13 2 3 -4 -9 -7 -7 -22 12 -69 31 -75 42 -205
26 -294 -13 -71 -72 -191 -122 -246 -71 -78 -225 -143 -337 -144 -47 0 -173
20 -181 29 -8 10 -71 41 -81 41 -6 0 -7 -6 -3 -13 6 -8 3 -8 -9 1 -9 8 -22 10
-28 6 -8 -5 -9 -3 -5 5 5 7 15 10 25 7 9 -3 3 4 -14 16 -16 13 -36 31 -44 40
-20 23 -32 23 -24 1 5 -15 3 -15 -11 2 l-18 20 6 -20 c4 -14 -1 -11 -16 10
-13 16 -23 32 -23 35 0 3 -10 16 -22 29 -18 20 -38 64 -60 136 -10 33 -16 194
-8 213 5 9 7 28 6 42 -1 18 1 21 7 11 7 -10 12 2 17 38 5 39 20 72 57 126 85
129 185 199 323 228 70 15 177 18 169 5z m1201 -47 c0 -10 -23 -21 -66 -31
-127 -32 -227 -107 -289 -216 -21 -38 -36 -54 -48 -52 -31 6 -24 39 21 108 63
94 138 151 256 196 47 17 126 14 126 -5z m-408 -343 c4 -7 6 -22 5 -33 -7 -52
-13 -65 -32 -65 -16 0 -20 7 -20 33 0 66 25 100 47 65z"/>
<path d="M2888 5827 c39 -6 70 -6 84 0 16 7 -1 9 -63 9 l-84 0 63 -9z"/>
<path d="M2685 5810 c-3 -5 1 -10 9 -10 9 0 16 5 16 10 0 6 -4 10 -9 10 -6 0
-13 -4 -16 -10z"/>
<path d="M3365 5809 c-4 -6 -4 -13 -1 -16 3 -4 6 -1 6 5 0 7 12 10 33 7 25 -4
28 -3 12 4 -27 13 -43 13 -50 0z"/>
<path d="M3398 5783 c7 -3 16 -2 19 1 4 3 -2 6 -13 5 -11 0 -14 -3 -6 -6z"/>
<path d="M3975 5660 c-3 -6 1 -7 9 -4 18 7 21 14 7 14 -6 0 -13 -4 -16 -10z"/>
<path d="M2017 5673 c-4 -3 -7 -13 -7 -21 0 -18 13 -7 16 13 2 17 1 18 -9 8z"/>
<path d="M1730 5540 c-9 -6 -10 -10 -3 -10 6 0 15 5 18 10 8 12 4 12 -15 0z"/>
<path d="M1446 5363 c-6 -14 -5 -15 5 -6 7 7 10 15 7 18 -3 3 -9 -2 -12 -12z"/>
<path d="M1100 5138 c-10 -21 -10 -22 3 -5 11 14 16 15 20 5 4 -9 6 -9 6 -1 2
23 -18 23 -29 1z"/>
<path d="M1016 5081 c-17 -19 -17 -20 3 -30 22 -12 37 1 25 20 -3 6 0 15 7 20
11 7 11 9 -2 9 -9 0 -24 -9 -33 -19z m24 -21 c0 -5 -2 -10 -4 -10 -3 0 -8 5
-11 10 -3 6 -1 10 4 10 6 0 11 -4 11 -10z"/>
<path d="M951 5026 c-8 -10 -9 -16 -1 -21 5 -3 10 -5 11 -3 4 18 7 38 4 38 -1
0 -8 -6 -14 -14z"/>
<path d="M869 4943 c-12 -16 -12 -17 2 -6 9 7 19 10 22 6 4 -3 7 -1 7 5 0 17
-16 15 -31 -5z"/>
<path d="M915 4930 c3 -5 8 -10 11 -10 2 0 4 5 4 10 0 6 -5 10 -11 10 -5 0 -7
-4 -4 -10z"/>
<path d="M893 4915 c0 -8 4 -12 9 -9 5 3 6 10 3 15 -9 13 -12 11 -12 -6z"/>
<path d="M865 4910 c-4 -6 -12 -7 -18 -3 -9 5 -9 3 0 -8 10 -12 10 -18 0 -29
-10 -12 -9 -12 6 -1 9 8 15 16 12 19 -3 3 0 11 6 19 6 7 9 13 6 13 -3 0 -9 -5
-12 -10z"/>
<path d="M745 4812 c-37 -43 -49 -82 -24 -82 5 0 8 4 7 9 -2 4 7 17 20 27 21
17 29 36 31 72 1 7 6 10 11 7 6 -3 10 -1 10 4 0 21 -15 11 -55 -37z m5 -27
c-13 -14 -27 -25 -32 -25 -4 0 2 11 14 25 12 14 26 25 32 25 5 0 -1 -11 -14
-25z"/>
<path d="M660 4690 c0 -7 -3 -10 -7 -7 -3 4 -13 -2 -21 -14 -8 -11 -11 -23 -8
-26 3 -4 6 0 6 8 1 10 5 8 15 -5 8 -11 15 -15 15 -9 0 7 -5 15 -11 18 -6 5 -4
12 8 20 10 7 15 17 10 21 -4 4 -7 1 -7 -6z"/>
<path d="M3912 5546 c7 -8 15 -12 17 -11 5 6 -10 25 -20 25 -5 0 -4 -6 3 -14z"/>
<path d="M3190 4891 c0 -6 4 -13 10 -16 6 -3 7 1 4 9 -7 18 -14 21 -14 7z"/>
<path d="M4310 5510 c0 -5 5 -10 10 -10 6 0 10 5 10 10 0 6 -4 10 -10 10 -5 0
-10 -4 -10 -10z"/>
<path d="M4352 5494 c10 -10 20 -15 24 -12 3 4 -5 12 -18 18 -22 12 -22 12 -6
-6z"/>
<path d="M2795 4390 c-25 -11 1 -11 35 0 20 6 21 8 5 8 -11 0 -29 -3 -40 -8z"/>
<path d="M2898 4383 c7 -3 16 -2 19 1 4 3 -2 6 -13 5 -11 0 -14 -3 -6 -6z"/>
<path d="M3068 4383 c12 -2 30 -2 40 0 9 3 -1 5 -23 4 -22 0 -30 -2 -17 -4z"/>
<path d="M3310 4386 c0 -2 7 -7 16 -10 8 -3 12 -2 9 4 -6 10 -25 14 -25 6z"/>
<path d="M3405 4380 c-3 -5 1 -10 10 -10 9 0 13 5 10 10 -3 6 -8 10 -10 10 -2
0 -7 -4 -10 -10z"/>
<path d="M3500 4349 c-12 -8 -10 -9 9 -4 17 5 22 4 16 -5 -5 -9 -4 -11 4 -6 6
4 9 12 6 17 -8 12 -16 11 -35 -2z"/>
<path d="M2680 4340 c-9 -6 -10 -10 -3 -10 6 0 15 5 18 10 8 12 4 12 -15 0z"/>
<path d="M2550 4330 c-13 -8 -12 -10 3 -10 9 0 17 5 17 10 0 12 -1 12 -20 0z"/>
<path d="M2580 4310 c-18 -12 -2 -12 25 0 13 6 15 9 5 9 -8 0 -22 -4 -30 -9z"/>
<path d="M3458 4313 c7 -3 16 -2 19 1 4 3 -2 6 -13 5 -11 0 -14 -3 -6 -6z"/>
<path d="M2450 4290 c0 -5 5 -10 10 -10 6 0 10 5 10 10 0 6 -4 10 -10 10 -5 0
-10 -4 -10 -10z"/>
<path d="M2380 4266 c0 -2 7 -7 16 -10 8 -3 12 -2 9 4 -6 10 -25 14 -25 6z"/>
<path d="M2205 4150 c-3 -5 -1 -10 4 -10 6 0 11 5 11 10 0 6 -2 10 -4 10 -3 0
-8 -4 -11 -10z"/>
<path d="M2125 4050 c-3 -5 -1 -10 4 -10 6 0 11 5 11 10 0 6 -2 10 -4 10 -3 0
-8 -4 -11 -10z"/>
<path d="M1930 3840 c-6 -11 -8 -20 -6 -20 3 0 10 9 16 20 6 11 8 20 6 20 -3
0 -10 -9 -16 -20z"/>
<path d="M1786 3653 c-4 -13 -4 -28 -1 -35 4 -7 -1 -4 -9 6 -13 16 -16 17 -16
4 0 -18 26 -32 35 -18 3 4 2 16 -2 26 -4 11 -3 15 5 10 6 -3 14 -1 18 5 4 7 3
9 -4 5 -5 -3 -12 0 -15 6 -2 8 -7 3 -11 -9z"/>
<path d="M2159 3585 c-51 -27 -89 -66 -122 -129 -31 -58 -31 -184 0 -242 88
-166 294 -204 440 -80 83 70 109 219 57 324 -28 57 -87 111 -148 136 -60 25
-170 21 -227 -9z m35 -67 c14 -20 14 -24 -1 -40 -21 -24 -46 -23 -68 2 -17 19
-17 21 0 40 24 26 50 25 69 -2z"/>
<path d="M3622 3597 c-18 -5 -52 -27 -75 -47 -150 -132 -122 -371 54 -459 110
-55 237 -34 317 53 55 60 74 100 79 171 9 116 -59 231 -163 276 -51 21 -155
25 -212 6z m12 -79 c23 -37 -35 -76 -70 -48 -19 17 -18 47 4 59 24 15 53 9 66
-11z"/>
<path d="M1701 3514 c0 -11 3 -14 6 -6 3 7 2 16 -1 19 -3 4 -6 -2 -5 -13z"/>
<path d="M1600 3364 c0 -8 5 -12 10 -9 6 4 8 11 5 16 -9 14 -15 11 -15 -7z"/>
<path d="M1590 3330 c0 -8 5 -22 10 -30 9 -13 10 -13 10 0 0 8 -5 22 -10 30
-9 13 -10 13 -10 0z"/>
<path d="M1646 3135 c-3 -9 -6 -24 -5 -33 0 -9 5 -4 10 12 9 32 6 48 -5 21z"/>
<path d="M1561 3064 c0 -11 3 -14 6 -6 3 7 2 16 -1 19 -3 4 -6 -2 -5 -13z"/>
<path d="M2378 2784 c-53 -28 -74 -113 -43 -173 8 -16 41 -53 74 -82 111 -101
277 -183 430 -214 102 -21 302 -16 396 10 94 25 273 117 346 178 86 71 111
108 117 168 4 46 2 51 -36 89 -60 61 -97 57 -254 -24 -154 -80 -251 -106 -395
-106 -142 0 -238 21 -358 80 -55 27 -116 59 -135 70 -41 24 -103 26 -142 4z"/>
<path d="M427 4333 c-10 -10 -8 -23 4 -23 5 0 8 4 5 9 -4 5 0 12 6 14 7 3 8 6
2 6 -6 1 -14 -2 -17 -6z"/>
<path d="M390 4302 c0 -12 19 -26 26 -19 2 2 -2 10 -11 17 -9 8 -15 8 -15 2z"/>
<path d="M354 4210 c-4 -16 -10 -27 -15 -24 -5 3 -9 -5 -8 -18 0 -13 3 -17 6
-10 2 6 9 10 14 6 9 -5 13 16 10 44 -1 6 3 12 9 12 5 0 10 -5 10 -12 0 -6 2
-9 5 -6 8 7 -5 38 -16 38 -5 0 -12 -13 -15 -30z"/>
<path d="M311 4064 c0 -11 3 -14 6 -6 3 7 2 16 -1 19 -3 4 -6 -2 -5 -13z"/>
<path d="M276 4054 c-3 -9 -4 -19 -1 -22 3 -3 5 1 5 9 0 11 2 11 10 -1 5 -8
10 -10 10 -5 0 6 -4 16 -9 23 -6 11 -10 10 -15 -4z"/>
<path d="M4346 2294 c-5 -14 -4 -15 9 -4 17 14 19 20 6 20 -5 0 -12 -7 -15
-16z"/>
<path d="M4260 2170 c0 -5 5 -10 11 -10 5 0 7 5 4 10 -3 6 -8 10 -11 10 -2 0
-4 -4 -4 -10z"/>
<path d="M3398 1563 c7 -3 16 -2 19 1 4 3 -2 6 -13 5 -11 0 -14 -3 -6 -6z"/>
<path d="M1947 635 c2 -8 11 -11 19 -8 16 6 11 16 -11 19 -8 1 -11 -4 -8 -11z"/>
</g>
</svg>
